#!OML:ASF \\Waltz\H\Terrain\Patient Classification 1\Animal1\Tuesday\Animal1.ASF
:FULLY-SPECIFIED
:DEGREES
4259
root 4.67614 14.72 -14.6312 26.5146 -54.6945 1.14038
lowerback 31.6211 0.463411 2.34908
upperback 2.22809 1.45421 1.47081
thorax -13.9857 0.468759 -0.246093
lowerneck -14.2185 -0.914663 -6.3686
upperneck 13.049 -1.13544 7.61098
head 6.37671 -0.247722 3.38423
rclavicle -3.02153e-014 -3.57812e-015
rhumerus -84.368 32.7848 -117.707
rradius 41.4955
rwrist 8.55478
rhand -41.3726 412.489
rfingers 7.12502
rthumb -14.2907 383
lclavicle -3.02153e-014 -3.57812e-015
lhumerus -75.245 -18.9905 108.933
lradius 40.1721
lwrist -32.6797
lhand 24.3403 -322.969
lfingers 7.12502
lthumb 48.5548 778.981
rfemur -55.9787 10.9882 22.4288
rtibia 68.1511
rfoot -21.1664 -17.3116
rtoes -0.719278
lfemur -73.1816 -4.08208 -19.5568
ltibia 51.2832
lfoot -14.0463 11.7981
ltoes 10.3837
4260
root 4.59861 14.726 -14.5857 26.1566 -54.8452 0.816458
lowerback 32.2805 0.724601 2.03691
upperback 2.31879 1.68739 1.48824
thorax -14.1719 0.582264 -0.156636
lowerneck -14.2059 -0.992558 -5.97318
upperneck 12.9795 -1.31151 7.54553
head 6.36328 -0.318718 3.27935
rclavicle -3.73715e-014 3.61788e-014
rhumerus -84.2454 32.5925 -117.813
rradius 41.4995
rwrist 8.31677
rhand -41.0838 412.064
rfingers 7.12502
rthumb -14.0124 382.556
lclavicle -3.73715e-014 3.61788e-014
lhumerus -75.3858 -19.3363 108.962
lradius 40.3752
lwrist -32.5594
lhand 24.3659 -322.994
lfingers 7.12502
lthumb 48.5784 778.944
rfemur -55.6173 10.9076 22.9817
rtibia 69.2986
rfoot -18.0143 -18.2355
rtoes -7.40109
lfemur -72.3846 -3.75649 -19.5735
ltibia 51.697
lfoot -13.3829 11.674
ltoes 5.86358
4261
root 4.53739 14.7051 -14.532 26.0058 -54.7639 0.641303
lowerback 32.4887 0.796724 2.03164
upperback 2.36161 1.78014 1.50113
thorax -14.2104 0.62115 -0.17901
lowerneck -13.9063 -1.00278 -6.21797
upperneck 12.7601 -1.33882 7.92407
head 6.24833 -0.320589 3.43603
rclavicle 4.45278e-014 1.59028e-015
rhumerus -84.1697 32.5333 -117.919
rradius 41.5374
rwrist 8.1596
rhand -40.9444 411.76
rfingers 7.12502
rthumb -13.878 382.243
lclavicle 4.45278e-014 1.59028e-015
lhumerus -75.0575 -19.2733 108.54
lradius 40.1897
lwrist -32.9347
lhand 24.4523 -323.129
lfingers 7.12502
lthumb 48.6578 778.771
rfemur -55.7519 10.3617 23.6047
rtibia 70.6089
rfoot -11.0307 -20.7532
rtoes -23.5636
lfemur -72.0775 -3.71603 -19.6039
ltibia 52.1106
lfoot -12.2951 11.5502
ltoes 0.234007
4262
root 4.50083 14.6968 -14.4658 25.8408 -54.3136 1.02525
lowerback 32.0421 0.549829 2.4139
upperback 2.37248 1.58189 1.4338
thorax -13.9943 0.516423 -0.374014
lowerneck -14.3065 -1.18511 -6.695
upperneck 13.3377 -1.59723 8.52674
head 6.52833 -0.410515 3.69866
rclavicle 6.75868e-014 -2.70347e-014
rhumerus -83.9691 32.4804 -117.771
rradius 41.5714
rwrist 7.40442
rhand -39.9544 411.999
rfingers 7.12502
rthumb -12.9238 382.419
lclavicle 6.75868e-014 -2.70347e-014
lhumerus -74.792 -19.3584 108.395
lradius 40.1763
lwrist -32.8538
lhand 24.6643 -322.988
lfingers 7.12502
lthumb 48.8528 778.817
rfemur -56.9093 9.2609 23.6442
rtibia 72.5404
rfoot -11.3569 -18.4195
rtoes -21.1579
lfemur -72.2052 -4.34473 -19.6984
ltibia 52.3307
lfoot -11.181 11.417
ltoes -4.25068
4263
root 4.49679 14.6382 -14.3746 25.9475 -53.3692 2.07582
lowerback 30.5217 -0.110719 3.46026
upperback 2.288 1.01803 1.13661
thorax -13.408 0.220342 -1.0316
lowerneck -14.1999 -1.17721 -6.85176
upperneck 13.4079 -1.59388 8.70725
head 6.53443 -0.404503 3.78506
rclavicle -2.3059e-014 -8.74653e-015
rhumerus -83.3375 32.2639 -117.362
rradius 41.2978
rwrist 6.52439
rhand -38.5167 412.336
rfingers 7.12502
rthumb -11.5376 382.673
lclavicle -2.3059e-014 -8.74653e-015
lhumerus -74.5892 -19.6197 108.303
lradius 40.2219
lwrist -32.3691
lhand 24.6517 -322.965
lfingers 7.12502
lthumb 48.8412 778.845
rfemur -59.4372 7.36007 23.2413
rtibia 74.8205
rfoot -10.4105 -16.4547
rtoes -21.6768
lfemur -73.4546 -5.70082 -20.0139
ltibia 52.4968
lfoot -10.1524 10.8165
ltoes -3.22351
4264
root 4.43753 14.6378 -14.3132 25.1476 -53.2951 2.7529
lowerback 30.4208 -0.101474 3.29644
upperback 2.38874 0.945395 0.990923
thorax -13.2519 0.197017 -1.07103
lowerneck -13.9464 -1.22256 -6.82254
upperneck 13.3845 -1.66758 8.66299
head 6.48883 -0.447745 3.75681
rclavicle 9.85972e-014 -5.48646e-014
rhumerus -83.2396 32.1414 -117.738
rradius 41.0338
rwrist 7.64498
rhand -40.7282 410.96
rfingers 7.12502
rthumb -13.6697 381.429
lclavicle 9.85972e-014 -5.48646e-014
lhumerus -74.392 -19.7251 108.073
lradius 40.118
lwrist -32.0675
lhand 24.5918 -322.881
lfingers 7.12502
lthumb 48.7861 778.956
rfemur -60.1994 6.64328 22.964
rtibia 76.8694
rfoot -9.06641 -14.7288
rtoes -21.3067
lfemur -72.9041 -5.94306 -20.575
ltibia 52.6192
lfoot -9.96065 10.0807
ltoes 1.46579
4265
root 4.37885 14.6529 -14.2531 24.5791 -53.2772 2.95658
lowerback 30.7027 -0.0387109 3.2074
upperback 2.42167 1.00028 0.970109
thorax -13.3376 0.223036 -1.06693
lowerneck -14.1537 -1.39909 -6.72668
upperneck 13.9096 -1.92301 8.50844
head 6.71116 -0.571626 3.67437
rclavicle -3.18055e-015 2.78299e-014
rhumerus -83.2437 32.1119 -117.943
rradius 40.7762
rwrist 8.04633
rhand -41.2871 411.106
rfingers 7.12502
rthumb -14.2083 381.612
lclavicle -3.18055e-015 2.78299e-014
lhumerus -74.3475 -19.7055 107.881
lradius 40.0813
lwrist -32.1026
lhand 24.4043 -322.773
lfingers 7.12502
lthumb 48.6137 779.149
rfemur -60.7412 6.126 22.8701
rtibia 78.7088
rfoot -8.43865 -12.1617
rtoes -15.7839
lfemur -72.1966 -6.19709 -20.7054
ltibia 52.8686
lfoot -10.2252 9.67031
ltoes 4.86074
